<svg
	version="1.1"
	xmlns="http://www.w3.org/2000/svg"
	viewBox="-2 -2 28 28">
	<defs>
		<style type="text/css" id="current-color-scheme">
			.ColorScheme-Text { color: #232629; }     
		</style>
	</defs>
	<path
		class="ColorScheme-Text"
		style="fill:currentColor"
		d="M21.075,21.978c-1.446-0.625-3.231-1.211-5.302-1.556c-0.569-0.095-0.973-0.638-0.875-1.206 c0.059-0.339,0.089-0.694,0.089-1.065c0-2.349-1.257-4.257-2.801-4.257c-1.555,0-2.812,1.908-2.812,4.257 c0,0.353,0.029,0.699,0.085,1.03c0.095,0.571-0.309,1.116-0.881,1.206c-2.157,0.339-4.01,0.955-5.512,1.602 c-0.915,0.132-1.654-0.915-1.114-1.753c0.132-0.199,0.265-0.408,0.386-0.618c0.32-0.507,0.64-1.015,0.948-1.544 c1.412-2.327,2.823-4.853,4.191-7.566c0.033-0.066,0.066-0.144,0.099-0.21c0.287-0.562,0.562-1.125,0.827-1.687 C8.535,8.346,8.668,8.07,8.789,7.805c0.21,0.132,0.419,0.286,0.662,0.441c1.103,0.684,2.14,1.07,2.89,1.268 c-0.551-0.419-1.158-0.915-1.776-1.533C10.101,7.518,9.693,7.055,9.34,6.603c0.518-1.147,1.015-2.272,1.456-3.364 c0.077-0.176,0.154-0.353,0.221-0.518c0.386-0.959,1.721-0.959,2.118-0.011c0.187,0.452,0.375,0.915,0.574,1.379 c0.165,0.408,0.353,0.816,0.54,1.235c0.121,0.286,0.254,0.584,0.386,0.882c0.265,0.596,0.54,1.191,0.827,1.798 c0.265,0.585,0.551,1.169,0.849,1.764c0,0.022,0.011,0.033,0.022,0.055c0.706,1.445,1.434,2.823,2.173,4.158 c0.529,0.981,1.07,1.93,1.621,2.846c0.188,0.342,0.386,0.673,0.596,1.004c0.143,0.232,0.276,0.463,0.419,0.684H21.13 c-0.386-0.209-0.805-0.408-1.257-0.585c-0.783-0.309-1.511-0.496-2.14-0.607c0.86,0.43,1.853,0.993,2.89,1.743 c0.64,0.474,1.213,0.937,1.698,1.401C22.608,21.261,21.913,22.121,21.075,21.978z"/>
</svg>